<svg width="32" height="32" viewBox="0 0 32 32" fill="none" xmlns="http://www.w3.org/2000/svg">
<path d="M21.0186 9.33337C21.751 8.51504 22.8154 8.00004 24 8.00004C26.2092 8.00004 28 9.7909 28 12C28 14.2092 26.2092 16 24 16H4M11.3457 6.22226C11.834 5.67671 12.5436 5.33337 13.3333 5.33337C14.8061 5.33337 16 6.52728 16 8.00004C16 9.4728 14.8061 10.6667 13.3333 10.6667H4M15.3457 25.7778C15.834 26.3234 16.5436 26.6667 17.3333 26.6667C18.8061 26.6667 20 25.4728 20 24C20 22.5273 18.8061 21.3334 17.3333 21.3334H4" stroke="#727272" stroke-width="2" stroke-linecap="round" stroke-linejoin="round"/>
</svg>
