<svg width="32" height="32" viewBox="0 0 32 32" fill="none" xmlns="http://www.w3.org/2000/svg">
<path d="M7.6854 29.9487C7.00762 29.9487 6.44715 29.7271 6.00399 29.2839C5.56082 28.8408 5.33924 28.2803 5.33924 27.6025C5.33924 27.1333 5.45655 26.6836 5.69117 26.2535C5.92578 25.8234 6.26467 25.5171 6.70783 25.3346L13.4335 22.6756V17.2795C11.713 19.391 9.96638 20.9812 8.19373 22.05C6.73576 22.929 5.11907 23.4466 3.34368 23.6026C2.6983 23.6594 2.17194 23.128 2.17194 22.4801V22.4801C2.17194 21.8322 2.69875 21.3147 3.34285 21.2449C4.66282 21.1018 5.88875 20.712 7.02065 20.0753C8.48048 19.2541 9.79693 18.1006 10.97 16.6147L13.238 14.073C13.4986 13.7602 13.8049 13.4995 14.1569 13.291C14.5088 13.0824 14.8933 12.9782 15.3104 12.9782H17.1873C17.6044 12.9782 17.9954 13.0824 18.3604 13.291C18.7254 13.4995 19.0382 13.7602 19.2989 14.073L21.5668 16.6147C22.8181 18.0485 24.1476 19.189 25.5553 20.0362C26.6457 20.6925 27.8456 21.0946 29.155 21.2425C29.7988 21.3152 30.3258 21.8322 30.3258 22.4801V22.4801C30.3258 23.128 29.7994 23.6594 29.1541 23.6016C27.3991 23.4443 25.7889 22.927 24.3235 22.05C22.5378 20.9812 20.7848 19.391 19.0642 17.2795V22.6756L25.7899 25.3346C26.233 25.5171 26.5719 25.8234 26.8065 26.2535C27.0412 26.6836 27.1585 27.1333 27.1585 27.6025C27.1585 28.2803 26.9369 28.8408 26.4937 29.2839C26.0506 29.7271 25.4901 29.9487 24.8123 29.9487H13.3944C13.1568 29.9487 12.9642 29.7561 12.9642 29.5186V29.5186C12.9642 28.8408 13.1728 28.2933 13.5899 27.8762C14.007 27.4592 14.5544 27.2506 15.2322 27.2506H20.4328C20.6414 27.2506 20.8239 27.1724 20.9803 27.016C21.1367 26.8596 21.2149 26.6771 21.2149 26.4686C21.2149 26.26 21.1367 26.0775 20.9803 25.9211C20.8239 25.7647 20.6414 25.6865 20.4328 25.6865H15.2322C14.0852 25.6865 13.1728 26.0384 12.495 26.7423C11.8172 27.4461 11.4783 28.3715 11.4783 29.5186V29.5186C11.4783 29.7561 11.2858 29.9487 11.0482 29.9487H7.6854ZM16.2489 12.209C15.4668 12.209 14.7955 11.9287 14.2351 11.3683C13.6746 10.8078 13.3944 10.1365 13.3944 9.35449C13.3944 8.57244 13.6746 7.90117 14.2351 7.3407C14.7955 6.78023 15.4668 6.5 16.2489 6.5C17.0309 6.5 17.7022 6.78023 18.2626 7.3407C18.8231 7.90117 19.1033 8.57244 19.1033 9.35449C19.1033 10.1365 18.8231 10.8078 18.2626 11.3683C17.7022 11.9287 17.0309 12.209 16.2489 12.209Z" fill="#727272"/>
</svg>
