<svg width="32" height="32" viewBox="0 0 32 32" fill="none" xmlns="http://www.w3.org/2000/svg">
<path d="M21.3333 15.1683C21.3333 13.2264 20.2907 11.533 18.7396 10.6002L22.8586 3.73523M29.3333 15.1683C29.3333 10.3137 26.7365 6.06895 22.8586 3.73718M9.1394 3.73751C5.26273 6.06958 2.66666 10.3146 2.66666 15.1683C5.79158 15.1725 7.54319 15.1742 10.6667 15.1683C10.6667 13.2274 11.7034 11.5287 13.2533 10.5957M9.14061 26.6041C11.1447 27.8088 13.4915 28.5015 16 28.5015C18.5089 28.5015 20.856 27.8086 22.8603 26.6036L18.7463 19.7404C17.9438 20.2236 17.0038 20.5016 15.9988 20.5016C14.9955 20.5016 14.0557 20.2296 13.2541 19.7478M17.3333 15.1683C17.3333 15.9046 16.7364 16.5016 16 16.5016C15.2636 16.5016 14.6667 15.9046 14.6667 15.1683C14.6667 14.4319 15.2636 13.8349 16 13.8349C16.7364 13.8349 17.3333 14.4319 17.3333 15.1683Z" stroke="#727272" stroke-width="2" stroke-linecap="round" stroke-linejoin="round"/>
</svg>
