<svg width="32" height="32" viewBox="0 0 32 32" fill="none" xmlns="http://www.w3.org/2000/svg">
<path d="M3.33334 7.33329L4.15483 8.15478C4.90942 8.90937 5.93286 9.33329 7.00001 9.33329C8.06716 9.33329 9.0906 8.90937 9.84519 8.15478L10.1548 7.84514C10.9094 7.09055 11.9329 6.66663 13 6.66663C14.0672 6.66663 15.0906 7.09055 15.8452 7.84514L16.1548 8.15478C16.9094 8.90937 17.9329 9.33329 19 9.33329C20.0672 9.33329 21.0906 8.90937 21.8452 8.15478L22.1548 7.84514C22.9094 7.09055 23.9329 6.66663 25 6.66663C26.0672 6.66663 27.0906 7.09055 27.8452 7.84514L28.6667 8.66663M3.33334 15.3333L4.15483 16.1548C4.90942 16.9094 5.93286 17.3333 7.00001 17.3333C8.06716 17.3333 9.0906 16.9094 9.84519 16.1548L10.1548 15.8451C10.9094 15.0905 11.9329 14.6666 13 14.6666C14.0672 14.6666 15.0906 15.0905 15.8452 15.8451L16.1548 16.1548C16.9094 16.9094 17.9329 17.3333 19 17.3333C20.0672 17.3333 21.0906 16.9094 21.8452 16.1548L22.1548 15.8451C22.9094 15.0905 23.9329 14.6666 25 14.6666C26.0672 14.6666 27.0906 15.0905 27.8452 15.8451L28.6667 16.6666M3.33334 23.3333L4.15483 24.1548C4.90942 24.9094 5.93286 25.3333 7.00001 25.3333C8.06716 25.3333 9.0906 24.9094 9.84519 24.1548L10.1548 23.8451C10.9094 23.0905 11.9329 22.6666 13 22.6666C14.0672 22.6666 15.0906 23.0905 15.8452 23.8451L16.1548 24.1548C16.9094 24.9094 17.9329 25.3333 19 25.3333C20.0672 25.3333 21.0906 24.9094 21.8452 24.1548L22.1548 23.8451C22.9094 23.0905 23.9329 22.6666 25 22.6666C26.0672 22.6666 27.0906 23.0905 27.8452 23.8451L28.6667 24.6666" stroke="#727272" stroke-width="2" stroke-linecap="round" stroke-linejoin="round"/>
</svg>
