<svg width="26" height="26" viewBox="0 0 26 26" fill="none" xmlns="http://www.w3.org/2000/svg">
<path d="M5.95834 15.1667C5.95834 16.3042 6.21564 17.374 6.73022 18.376C7.2448 19.3781 7.96251 20.2132 8.88334 20.8813C8.81112 20.6646 8.75695 20.4434 8.72084 20.2177C8.68473 19.992 8.66668 19.7708 8.66668 19.5542C8.66668 18.9764 8.77501 18.4347 8.99168 17.9292C9.20834 17.4236 9.52432 16.9632 9.93959 16.5479L13 13.5417L16.0604 16.5479C16.4757 16.9632 16.7917 17.4236 17.0083 17.9292C17.225 18.4347 17.3333 18.9764 17.3333 19.5542C17.3333 19.7708 17.3153 19.992 17.2792 20.2177C17.2431 20.4434 17.1889 20.6646 17.1167 20.8813C18.0375 20.2132 18.7552 19.3781 19.2698 18.376C19.7844 17.374 20.0417 16.3042 20.0417 15.1667C20.0417 14.1917 19.834 13.2392 19.4188 12.3094C19.0035 11.3795 18.4076 10.5264 17.6313 9.75C17.2521 10.0208 16.8549 10.233 16.4396 10.3865C16.0243 10.5399 15.609 10.6167 15.1938 10.6167C14.0924 10.6167 13.1806 10.242 12.4583 9.49271C11.7361 8.7434 11.375 7.8 11.375 6.6625V6.12083C10.5445 6.71667 9.79515 7.37569 9.12709 8.09792C8.45904 8.82014 7.89029 9.57396 7.42084 10.3594C6.9514 11.1448 6.59029 11.9483 6.33751 12.7698C6.08473 13.5913 5.95834 14.3903 5.95834 15.1667ZM13 15.8167L11.0771 17.7125C10.8243 17.9653 10.6302 18.2451 10.4948 18.5521C10.3594 18.859 10.2917 19.1931 10.2917 19.5542C10.2917 20.2944 10.5535 20.9219 11.0771 21.4365C11.6007 21.951 12.2417 22.2083 13 22.2083C13.7583 22.2083 14.3993 21.951 14.9229 21.4365C15.4465 20.9219 15.7083 20.2944 15.7083 19.5542C15.7083 19.1931 15.6406 18.859 15.5052 18.5521C15.3698 18.2451 15.1757 17.9653 14.9229 17.7125L13 15.8167ZM13 3.25V6.825C13 7.43889 13.2122 7.95347 13.6365 8.36875C14.0608 8.78403 14.5799 8.99167 15.1938 8.99167C15.5188 8.99167 15.8212 8.92396 16.1011 8.78854C16.3809 8.65313 16.6292 8.45 16.8458 8.17917L17.3333 7.58333C18.6695 8.34167 19.7257 9.39792 20.5021 10.7521C21.2785 12.1063 21.6667 13.5778 21.6667 15.1667C21.6667 17.5861 20.8271 19.6354 19.1479 21.3146C17.4688 22.9938 15.4195 23.8333 13 23.8333C10.5806 23.8333 8.53126 22.9938 6.85209 21.3146C5.17293 19.6354 4.33334 17.5861 4.33334 15.1667C4.33334 12.8556 5.10973 10.6302 6.66251 8.49063C8.21529 6.35104 10.3278 4.60417 13 3.25Z" fill="#727272"/>
</svg>
