<svg width="26" height="26" viewBox="0 0 26 26" fill="none" xmlns="http://www.w3.org/2000/svg">
<path d="M11.4834 23.8333C10.5625 23.8333 9.86287 23.5579 9.38439 23.0072C8.90592 22.4566 8.66669 21.8291 8.66669 21.125C8.66669 20.6555 8.77051 20.1996 8.97814 19.7572C9.18578 19.3149 9.50627 18.9493 9.9396 18.6604C10.3368 18.4076 10.6663 18.0691 10.9281 17.6448C11.19 17.2204 11.384 16.6382 11.5104 15.8979C11.4924 15.8979 11.4834 15.8934 11.4834 15.8843C11.4834 15.8753 11.4653 15.8618 11.4292 15.8437L8.28752 16.9541C7.98058 17.0625 7.68266 17.1527 7.39377 17.225C7.10488 17.2972 6.80696 17.3333 6.50002 17.3333C5.36252 17.3333 4.35592 16.8368 3.48023 15.8437C2.60453 14.8507 2.16669 13.3972 2.16669 11.4833C2.16669 10.5625 2.44203 9.86281 2.99273 9.38433C3.54342 8.90586 4.16183 8.66663 4.84794 8.66663C5.31738 8.66663 5.7778 8.77045 6.22919 8.97808C6.68058 9.18572 7.05071 9.50621 7.3396 9.93954C7.59238 10.3368 7.94898 10.6753 8.40939 10.9552C8.86981 11.235 9.43405 11.4201 10.1021 11.5104L10.1382 11.4562C10.1502 11.4382 10.1563 11.4201 10.1563 11.402L9.04585 8.28746C8.93752 7.98051 8.84724 7.6826 8.77502 7.39371C8.7028 7.10482 8.66669 6.81593 8.66669 6.52704C8.66669 5.37149 9.16321 4.35586 10.1563 3.48017C11.1493 2.60447 12.6028 2.16663 14.5167 2.16663C15.4375 2.16663 16.1372 2.44197 16.6156 2.99267C17.0941 3.54336 17.3334 4.16176 17.3334 4.84788C17.3334 5.31732 17.2295 5.77774 17.0219 6.22913C16.8143 6.68051 16.4938 7.05065 16.0604 7.33954C15.591 7.64649 15.2254 8.05274 14.9636 8.55829C14.7018 9.06385 14.5528 9.58746 14.5167 10.1291C14.5347 10.1472 14.5483 10.1517 14.5573 10.1427C14.5663 10.1336 14.5799 10.1472 14.5979 10.1833L17.7125 9.01871C18.0195 8.91038 18.3129 8.82461 18.5927 8.76142C18.8726 8.69822 19.166 8.66663 19.4729 8.66663C20.9354 8.66663 22.0278 9.27149 22.75 10.4812C23.4722 11.6909 23.8334 13.0361 23.8334 14.5166C23.8334 15.4375 23.5445 16.1371 22.9667 16.6156C22.3889 17.0941 21.7479 17.3333 21.0438 17.3333C20.5924 17.3333 20.1545 17.2295 19.7302 17.0218C19.3059 16.8142 18.9493 16.4937 18.6604 16.0604C18.4077 15.6632 18.0691 15.3336 17.6448 15.0718C17.2205 14.81 16.6382 14.6069 15.8979 14.4625C15.8799 14.4986 15.8654 14.5262 15.8546 14.5453C15.8438 14.5644 15.8311 14.582 15.8167 14.5979L16.9542 17.7125C17.0625 18.0013 17.1528 18.2767 17.225 18.5385C17.2972 18.8003 17.3334 19.0757 17.3334 19.3645C17.3514 20.5382 16.8639 21.5763 15.8709 22.4791C14.8778 23.3819 13.4153 23.8333 11.4834 23.8333ZM13 14.625C13.4514 14.625 13.8351 14.467 14.1511 14.151C14.467 13.835 14.625 13.4513 14.625 13C14.625 12.5486 14.467 12.1649 14.1511 11.8489C13.8351 11.5329 13.4514 11.375 13 11.375C12.5486 11.375 12.165 11.5329 11.849 11.8489C11.533 12.1649 11.375 12.5486 11.375 13C11.375 13.4513 11.533 13.835 11.849 14.151C12.165 14.467 12.5486 14.625 13 14.625ZM11.4292 10.1562C11.6459 10.0659 11.8806 9.98468 12.1334 9.91246C12.3861 9.84024 12.6389 9.78607 12.8917 9.74996C13.0361 8.93746 13.3025 8.20621 13.6906 7.55621C14.0788 6.90621 14.5709 6.3826 15.1667 5.98538C15.3472 5.85899 15.4827 5.701 15.5729 5.51142C15.6632 5.32183 15.7084 5.10065 15.7084 4.84788C15.7084 4.55139 15.6136 4.30122 15.424 4.09737C15.2344 3.89354 14.932 3.79163 14.5167 3.79163C13.7403 3.79163 12.8511 3.97712 11.849 4.34811C10.8469 4.71909 10.3278 5.44421 10.2917 6.52347C10.2917 6.72583 10.3143 6.91695 10.3594 7.09682C10.4045 7.27669 10.4542 7.43885 10.5084 7.58329L11.4292 10.1562ZM6.50002 15.7083C6.7528 15.7083 7.11391 15.6361 7.58335 15.4916L10.1563 14.5708C10.0118 14.318 9.90801 14.0652 9.84481 13.8125C9.78162 13.5597 9.75002 13.325 9.75002 13.1083C8.93752 12.9638 8.20627 12.6975 7.55627 12.3093C6.90627 11.9211 6.38266 11.4291 5.98544 10.8333C5.85905 10.6527 5.68752 10.5173 5.47085 10.427C5.25419 10.3368 5.04655 10.2916 4.84794 10.2916C4.50488 10.2916 4.24308 10.3864 4.06252 10.576C3.88196 10.7656 3.79169 11.068 3.79169 11.4833C3.79169 12.6017 4.02302 13.5854 4.4857 14.4346C4.94837 15.2837 5.61981 15.7083 6.50002 15.7083ZM11.4834 22.2083C12.4426 22.2083 13.3866 22.0007 14.3153 21.5854C15.244 21.1701 15.7084 20.4569 15.7084 19.4458C15.7084 19.2472 15.6903 19.0757 15.6542 18.9312C15.6181 18.7868 15.5639 18.6152 15.4917 18.4166L14.5709 15.8437C14.3361 15.952 14.0969 16.0423 13.8531 16.1145C13.6094 16.1868 13.3611 16.2319 13.1084 16.25C12.9639 17.0625 12.6976 17.7937 12.3094 18.4437C11.9212 19.0937 11.4292 19.6173 10.8334 20.0145C10.6709 20.1229 10.54 20.2899 10.4406 20.5156C10.3413 20.7413 10.2917 20.9534 10.2917 21.152C10.3097 21.4229 10.409 21.6666 10.5896 21.8833C10.7702 22.1 11.0681 22.2083 11.4834 22.2083ZM21.0438 15.7083C21.3476 15.7083 21.6176 15.6255 21.8539 15.46C22.0902 15.2945 22.2084 14.9801 22.2084 14.5166C22.2084 13.7222 22.0233 12.8284 21.6531 11.8354C21.283 10.8423 20.5488 10.3277 19.4505 10.2916C19.2488 10.2916 19.0622 10.3097 18.8906 10.3458C18.7191 10.3819 18.5611 10.427 18.4167 10.4812L15.8438 11.4291C15.934 11.5736 16.0243 11.8038 16.1146 12.1198C16.2049 12.4357 16.25 12.693 16.25 12.8916C17.0625 13.0361 17.7938 13.3024 18.4438 13.6906C19.0938 14.0788 19.6174 14.5708 20.0146 15.1666C20.1229 15.3111 20.2734 15.4375 20.466 15.5458C20.6586 15.6541 20.8512 15.7083 21.0438 15.7083Z" fill="#727272"/>
</svg>
