<svg width="26" height="26" viewBox="0 0 26 26" fill="none" xmlns="http://www.w3.org/2000/svg">
<path d="M12.1225 19.5H14.0725V11.7H12.1225V19.5ZM12.9994 9.295C13.3031 9.295 13.5579 9.19533 13.7637 8.996C13.9696 8.79667 14.0725 8.54967 14.0725 8.255C14.0725 7.94192 13.9698 7.67948 13.7643 7.46769C13.5589 7.2559 13.3043 7.15 13.0006 7.15C12.6969 7.15 12.4421 7.2559 12.2362 7.46769C12.0304 7.67948 11.9275 7.94192 11.9275 8.255C11.9275 8.54967 12.0302 8.79667 12.2357 8.996C12.4411 9.19533 12.6957 9.295 12.9994 9.295ZM13.0086 26C11.2161 26 9.53149 25.6587 7.95489 24.9762C6.3783 24.2937 4.99958 23.3621 3.81875 22.1812C2.63792 21.0004 1.70625 19.6209 1.02375 18.0427C0.34125 16.4645 0 14.7782 0 12.9837C0 11.1893 0.34125 9.50303 1.02375 7.92483C1.70625 6.34661 2.63792 4.9725 3.81875 3.8025C4.99958 2.6325 6.37911 1.70625 7.95733 1.02375C9.53553 0.34125 11.2218 0 13.0162 0C14.8107 0 16.497 0.34125 18.0752 1.02375C19.6534 1.70625 21.0275 2.6325 22.1975 3.8025C23.3675 4.9725 24.2937 6.34833 24.9762 7.93C25.6587 9.51167 26 11.1988 26 12.9914C26 14.7839 25.6587 16.4685 24.9762 18.0451C24.2937 19.6217 23.3675 20.9984 22.1975 22.1753C21.0275 23.3521 19.6517 24.2838 18.07 24.9703C16.4883 25.6568 14.8012 26 13.0086 26ZM13.0162 24.05C16.0821 24.05 18.6875 22.9721 20.8325 20.8162C22.9775 18.6604 24.05 16.0496 24.05 12.9837C24.05 9.91792 22.9795 7.3125 20.8386 5.1675C18.6977 3.0225 16.0848 1.95 13 1.95C9.945 1.95 7.33958 3.02046 5.18375 5.16139C3.02792 7.30234 1.95 9.91521 1.95 13C1.95 16.055 3.02792 18.6604 5.18375 20.8162C7.33958 22.9721 9.95042 24.05 13.0162 24.05Z" fill="#727272"/>
</svg>
