<svg width="26" height="26" viewBox="0 0 26 26" fill="none" xmlns="http://www.w3.org/2000/svg">
<g clip-path="url(#clip0_57_36)">
<path d="M4.70166 3.17419L3.17416 4.70169L7.8975 9.42503L7.58333 9.75003H3.25V16.25H7.58333L13 21.6667V14.5275L17.5283 19.0559C16.8242 19.5867 16.0333 20.0092 15.1667 20.2584V22.49C16.6183 22.165 17.9508 21.4934 19.0775 20.5942L21.2983 22.815L22.8258 21.2875L4.70166 3.17419ZM10.8333 16.4342L8.4825 14.0834H5.41666V11.9167H8.4825L9.43583 10.9634L10.8333 12.3609V16.4342ZM20.5833 13C20.5833 13.8884 20.4208 14.7442 20.1392 15.535L21.7967 17.1925C22.4033 15.925 22.75 14.5059 22.75 13C22.75 8.36336 19.5108 4.48503 15.1667 3.49919V5.73086C18.2975 6.66253 20.5833 9.56586 20.5833 13ZM13 4.33336L10.9633 6.37003L13 8.40669V4.33336ZM17.875 13C17.875 11.0825 16.77 9.43586 15.1667 8.63419V10.5734L17.8533 13.26C17.8642 13.1734 17.875 13.0867 17.875 13Z" fill="#727272"/>
</g>
<defs>
<clipPath id="clip0_57_36">
<rect width="26" height="26" fill="white"/>
</clipPath>
</defs>
</svg>
