<svg width="26" height="26" viewBox="0 0 26 26" fill="none" xmlns="http://www.w3.org/2000/svg">
<path d="M15.1125 23.752C14.9139 23.8423 14.7017 23.8513 14.476 23.7791C14.2503 23.7069 14.0924 23.5715 14.0021 23.3729L12.1333 19.6354C12.043 19.4368 12.0295 19.2246 12.0927 18.9989C12.1559 18.7732 12.2868 18.6152 12.4854 18.525C12.684 18.4347 12.8962 18.4257 13.1219 18.4979C13.3476 18.5701 13.5055 18.7055 13.5958 18.9041L15.4646 22.6416C15.5549 22.8402 15.5684 23.0524 15.5052 23.2781C15.442 23.5038 15.3111 23.6618 15.1125 23.752ZM21.6125 23.725C21.4139 23.8152 21.2017 23.8243 20.976 23.752C20.7503 23.6798 20.5923 23.5444 20.5021 23.3458L18.6333 19.6083C18.543 19.4097 18.5295 19.1975 18.5927 18.9718C18.6559 18.7461 18.7868 18.5882 18.9854 18.4979C19.184 18.4076 19.3962 18.3986 19.6219 18.4708C19.8476 18.543 20.0055 18.6784 20.0958 18.877L21.9646 22.6145C22.0548 22.8132 22.0684 23.0253 22.0052 23.251C21.942 23.4767 21.8111 23.6347 21.6125 23.725ZM8.61249 23.725C8.41388 23.8152 8.20173 23.8288 7.97603 23.7656C7.75034 23.7024 7.59235 23.5715 7.50207 23.3729L5.63332 19.6354C5.54305 19.4368 5.53402 19.2246 5.60624 18.9989C5.67846 18.7732 5.81388 18.6152 6.01249 18.525C6.2111 18.4347 6.42325 18.4211 6.64895 18.4843C6.87464 18.5475 7.03263 18.6784 7.12291 18.877L8.99166 22.6416C9.08193 22.8402 9.09096 23.0479 9.01874 23.2645C8.94652 23.4812 8.8111 23.6347 8.61249 23.725ZM7.85416 16.7916C6.28332 16.7916 4.9427 16.2364 3.83228 15.126C2.72186 14.0156 2.16666 12.675 2.16666 11.1041C2.16666 9.67774 2.67673 8.40482 3.69686 7.28538C4.717 6.16593 5.98541 5.55204 7.50207 5.44371C8.07985 4.4326 8.8427 3.63364 9.79061 3.04683C10.7385 2.46003 11.8083 2.16663 13 2.16663C14.643 2.16663 16.0198 2.68572 17.1302 3.72392C18.2406 4.76211 18.9222 6.04857 19.175 7.58329C20.6014 7.65551 21.7344 8.1385 22.5739 9.03225C23.4135 9.926 23.8333 10.9777 23.8333 12.1875C23.8333 13.4513 23.3864 14.5347 22.4927 15.4375C21.5989 16.3402 20.5111 16.7916 19.2292 16.7916H7.85416ZM7.85416 15.1666H19.2292C20.0597 15.1666 20.7639 14.8732 21.3417 14.2864C21.9194 13.6996 22.2083 13 22.2083 12.1875C22.2083 11.3569 21.9194 10.6527 21.3417 10.075C20.7639 9.49718 20.0597 9.20829 19.2292 9.20829H17.6042V8.39579C17.6042 7.11385 17.1573 6.026 16.2635 5.13225C15.3698 4.2385 14.2819 3.79163 13 3.79163C12.0792 3.79163 11.2351 4.03989 10.4677 4.53642C9.70034 5.03295 9.1361 5.70551 8.77499 6.55413L8.55832 7.04163H7.79999C6.68055 7.07774 5.73263 7.4885 4.95624 8.27392C4.17985 9.05933 3.79166 10.0027 3.79166 11.1041C3.79166 12.2236 4.18888 13.1805 4.98332 13.975C5.77777 14.7694 6.73471 15.1666 7.85416 15.1666Z" fill="#727272"/>
</svg>
