<svg width="26" height="26" viewBox="0 0 26 26" fill="none" xmlns="http://www.w3.org/2000/svg">
<path d="M2.16666 22.0459V20.4209C2.67221 20.3667 3.10555 20.2223 3.46666 19.9876C3.82777 19.7528 4.18888 19.5046 4.54999 19.2428C4.9111 18.981 5.31735 18.7508 5.76874 18.5521C6.22013 18.3535 6.77985 18.2542 7.44791 18.2542C8.11596 18.2542 8.68471 18.3671 9.15416 18.5928C9.6236 18.8185 10.0524 19.0667 10.4406 19.3376C10.8288 19.6084 11.2215 19.8567 11.6187 20.0823C12.016 20.308 12.4764 20.4209 13 20.4209C13.5236 20.4209 13.984 20.308 14.3812 20.0823C14.7785 19.8567 15.1712 19.6084 15.5594 19.3376C15.9476 19.0667 16.3764 18.8185 16.8458 18.5928C17.3153 18.3671 17.884 18.2542 18.5521 18.2542C19.2201 18.2542 19.7753 18.3535 20.2177 18.5521C20.6601 18.7508 21.0663 18.981 21.4364 19.2428C21.8066 19.5046 22.1722 19.7528 22.5333 19.9876C22.8944 20.2223 23.3278 20.3667 23.8333 20.4209V22.0459C23.2014 22.0098 22.6733 21.8789 22.2489 21.6532C21.8246 21.4275 21.4274 21.1837 21.0573 20.9219C20.6871 20.6601 20.3125 20.4209 19.9333 20.2042C19.5542 19.9876 19.0937 19.8792 18.5521 19.8792C18.0104 19.8792 17.5364 19.9921 17.1302 20.2178C16.7239 20.4435 16.3267 20.6917 15.9385 20.9626C15.5503 21.2334 15.126 21.4817 14.6656 21.7073C14.2052 21.933 13.65 22.0459 13 22.0459C12.35 22.0459 11.7948 21.933 11.3344 21.7073C10.8739 21.4817 10.4496 21.2334 10.0614 20.9626C9.67325 20.6917 9.27603 20.4435 8.86978 20.2178C8.46353 19.9921 7.98957 19.8792 7.44791 19.8792C6.90624 19.8792 6.44131 19.9876 6.05311 20.2042C5.66492 20.4209 5.29027 20.6601 4.92916 20.9219C4.56805 21.1837 4.17534 21.4275 3.75103 21.6532C3.32673 21.8789 2.7986 22.0098 2.16666 22.0459ZM2.16666 17.2792V15.6542C2.67221 15.6001 3.10555 15.4556 3.46666 15.2209C3.82777 14.9862 4.18888 14.7379 4.54999 14.4761C4.9111 14.2143 5.31735 13.9841 5.76874 13.7855C6.22013 13.5869 6.77985 13.4876 7.44791 13.4876C8.11596 13.4876 8.68471 13.6004 9.15416 13.8261C9.6236 14.0518 10.0524 14.3001 10.4406 14.5709C10.8288 14.8417 11.2215 15.09 11.6187 15.3157C12.016 15.5414 12.4764 15.6542 13 15.6542C13.5236 15.6542 13.984 15.5414 14.3812 15.3157C14.7785 15.09 15.1712 14.8417 15.5594 14.5709C15.9476 14.3001 16.3764 14.0518 16.8458 13.8261C17.3153 13.6004 17.884 13.4876 18.5521 13.4876C19.2201 13.4876 19.7753 13.5869 20.2177 13.7855C20.6601 13.9841 21.0663 14.2143 21.4364 14.4761C21.8066 14.7379 22.1722 14.9862 22.5333 15.2209C22.8944 15.4556 23.3278 15.6001 23.8333 15.6542V17.2792C23.2014 17.207 22.6733 17.0535 22.2489 16.8188C21.8246 16.5841 21.4274 16.3403 21.0573 16.0876C20.6871 15.8348 20.3125 15.6091 19.9333 15.4105C19.5542 15.2119 19.0937 15.1126 18.5521 15.1126C18.0104 15.1126 17.541 15.2254 17.1437 15.4511C16.7465 15.6768 16.3493 15.9251 15.9521 16.1959C15.5549 16.4667 15.126 16.715 14.6656 16.9407C14.2052 17.1664 13.65 17.2792 13 17.2792C12.35 17.2792 11.7948 17.1664 11.3344 16.9407C10.8739 16.715 10.4496 16.4667 10.0614 16.1959C9.67325 15.9251 9.27603 15.6768 8.86978 15.4511C8.46353 15.2254 7.98957 15.1126 7.44791 15.1126C6.90624 15.1126 6.44131 15.2209 6.05311 15.4376C5.66492 15.6542 5.29027 15.8935 4.92916 16.1553C4.56805 16.4171 4.17534 16.6608 3.75103 16.8865C3.32673 17.1122 2.7986 17.2431 2.16666 17.2792ZM2.16666 12.5126V10.8876C2.67221 10.8514 3.10555 10.7205 3.46666 10.4948C3.82777 10.2692 4.18888 10.0254 4.54999 9.7636C4.9111 9.50179 5.31735 9.26256 5.76874 9.04589C6.22013 8.82922 6.77985 8.72089 7.44791 8.72089C8.11596 8.72089 8.68471 8.83374 9.15416 9.05943C9.6236 9.28513 10.0524 9.53339 10.4406 9.80422C10.8288 10.0751 11.2215 10.3233 11.6187 10.549C12.016 10.7747 12.4764 10.8876 13 10.8876C13.5236 10.8876 13.984 10.7747 14.3812 10.549C14.7785 10.3233 15.1712 10.0751 15.5594 9.80422C15.9476 9.53339 16.3764 9.28513 16.8458 9.05943C17.3153 8.83374 17.884 8.72089 18.5521 8.72089C19.2201 8.72089 19.7753 8.82922 20.2177 9.04589C20.6601 9.26256 21.0663 9.50179 21.4364 9.7636C21.8066 10.0254 22.1722 10.2692 22.5333 10.4948C22.8944 10.7205 23.3278 10.8514 23.8333 10.8876V12.5126C23.2014 12.4764 22.6733 12.3455 22.2489 12.1198C21.8246 11.8942 21.4274 11.6504 21.0573 11.3886C20.6871 11.1268 20.3125 10.8876 19.9333 10.6709C19.5542 10.4542 19.0937 10.3459 18.5521 10.3459C18.0104 10.3459 17.5364 10.4587 17.1302 10.6844C16.7239 10.9101 16.3267 11.1584 15.9385 11.4292C15.5503 11.7001 15.126 11.9483 14.6656 12.174C14.2052 12.3997 13.65 12.5126 13 12.5126C12.35 12.5126 11.7948 12.3997 11.3344 12.174C10.8739 11.9483 10.4496 11.7001 10.0614 11.4292C9.67325 11.1584 9.27603 10.9101 8.86978 10.6844C8.46353 10.4587 7.98957 10.3459 7.44791 10.3459C6.90624 10.3459 6.44131 10.4542 6.05311 10.6709C5.66492 10.8876 5.29027 11.1268 4.92916 11.3886C4.56805 11.6504 4.17534 11.8942 3.75103 12.1198C3.32673 12.3455 2.7986 12.4764 2.16666 12.5126ZM2.16666 7.74589V6.12089C2.67221 6.06672 3.10555 5.92228 3.46666 5.68756C3.82777 5.45283 4.18888 5.20457 4.54999 4.94277C4.9111 4.68096 5.31735 4.45075 5.76874 4.25214C6.22013 4.05353 6.77985 3.95422 7.44791 3.95422C8.11596 3.95422 8.68471 4.06707 9.15416 4.29277C9.6236 4.51846 10.0524 4.76672 10.4406 5.03756C10.8288 5.30839 11.2215 5.55665 11.6187 5.78235C12.016 6.00804 12.4764 6.12089 13 6.12089C13.5236 6.12089 13.984 6.00804 14.3812 5.78235C14.7785 5.55665 15.1712 5.30839 15.5594 5.03756C15.9476 4.76672 16.3764 4.51846 16.8458 4.29277C17.3153 4.06707 17.884 3.95422 18.5521 3.95422C19.2201 3.95422 19.7753 4.05353 20.2177 4.25214C20.6601 4.45075 21.0663 4.68096 21.4364 4.94277C21.8066 5.20457 22.1722 5.45283 22.5333 5.68756C22.8944 5.92228 23.3278 6.06672 23.8333 6.12089V7.74589C23.2014 7.70978 22.6733 7.57888 22.2489 7.35318C21.8246 7.12749 21.4274 6.88374 21.0573 6.62193C20.6871 6.36013 20.3125 6.12089 19.9333 5.90422C19.5542 5.68756 19.0937 5.57922 18.5521 5.57922C18.0104 5.57922 17.5364 5.69207 17.1302 5.91777C16.7239 6.14346 16.3267 6.39172 15.9385 6.66256C15.5503 6.93339 15.126 7.18165 14.6656 7.40735C14.2052 7.63304 13.65 7.74589 13 7.74589C12.35 7.74589 11.7948 7.63304 11.3344 7.40735C10.8739 7.18165 10.4496 6.93339 10.0614 6.66256C9.67325 6.39172 9.27603 6.14346 8.86978 5.91777C8.46353 5.69207 7.98957 5.57922 7.44791 5.57922C6.90624 5.57922 6.44131 5.68756 6.05311 5.90422C5.66492 6.12089 5.29027 6.36013 4.92916 6.62193C4.56805 6.88374 4.17534 7.12749 3.75103 7.35318C3.32673 7.57888 2.7986 7.70978 2.16666 7.74589Z" fill="#727272"/>
</svg>
